<?xml version="1.0" standalone="no"?>
<!DOCTYPE svg PUBLIC "-//W3C//DTD SVG 20010904//EN"
 "http://www.w3.org/TR/2001/REC-SVG-20010904/DTD/svg10.dtd">
<svg version="1.0" xmlns="http://www.w3.org/2000/svg"
 width="200.000000pt" height="200.000000pt" viewBox="0 0 200.000000 200.000000"
 preserveAspectRatio="xMidYMid meet">

<g transform="translate(0.000000,200.000000) scale(0.100000,-0.100000)"
fill="#000000" stroke="none">
<path d="M509 1505 c-49 -16 -109 -68 -135 -117 -25 -48 -30 -131 -10 -182 19
-50 92 -123 154 -155 23 -12 44 -21 47 -21 3 0 5 28 5 61 0 59 -1 62 -42 99
-40 35 -43 41 -43 90 0 49 3 55 43 90 40 36 42 40 42 94 0 31 -3 56 -7 55 -5
0 -29 -7 -54 -14z"/>
<path d="M630 1466 c0 -56 0 -56 30 -56 17 0 46 -7 65 -14 l35 -15 25 43 c14
23 25 48 25 53 0 15 -54 33 -122 40 l-58 6 0 -57z"/>
<path d="M1010 1070 l0 -440 70 0 70 0 0 440 0 440 -70 0 -70 0 0 -440z"/>
<path d="M1315 1333 l-105 -177 0 -93 0 -92 116 -171 115 -170 81 0 c63 0 78
3 70 13 -72 90 -292 412 -288 422 2 7 65 110 140 229 l135 216 -79 0 -80 0
-105 -177z"/>
<path d="M630 1060 c0 -58 1 -62 45 -103 40 -39 45 -48 45 -88 0 -55 -17 -88
-57 -114 -29 -18 -32 -25 -33 -72 0 -61 4 -63 75 -29 96 45 145 121 145 224 0
84 -43 151 -129 203 -36 22 -71 39 -78 39 -9 0 -13 -17 -13 -60z"/>
<path d="M364 765 c-4 -9 -7 -33 -8 -53 -1 -33 3 -39 36 -55 20 -10 69 -21
107 -26 l71 -7 0 51 0 50 -82 21 c-46 11 -91 24 -100 28 -13 6 -20 3 -24 -9z"/>
</g>
</svg>
