<?xml version="1.0" standalone="no"?>
<!DOCTYPE svg PUBLIC "-//W3C//DTD SVG 20010904//EN"
 "http://www.w3.org/TR/2001/REC-SVG-20010904/DTD/svg10.dtd">
<svg version="1.0" xmlns="http://www.w3.org/2000/svg"
 width="200.000000pt" height="200.000000pt" viewBox="0 0 200.000000 200.000000"
 preserveAspectRatio="xMidYMid meet">

<g transform="translate(0.000000,200.000000) scale(0.100000,-0.100000)"
fill="#000000" stroke="none">
<path d="M506 1504 c-60 -22 -101 -58 -130 -116 -65 -130 -7 -261 151 -342 18
-9 34 -16 38 -16 3 0 5 28 5 62 0 59 -1 62 -40 95 -67 58 -63 140 10 194 27
21 30 28 30 81 0 64 -2 65 -64 42z"/>
<path d="M630 1465 c0 -55 0 -55 30 -55 17 0 46 -7 65 -14 l35 -15 25 43 c14
23 25 48 25 54 0 15 -93 42 -142 42 l-38 0 0 -55z"/>
<path d="M1010 1070 l0 -440 70 0 70 0 0 440 0 440 -70 0 -70 0 0 -440z"/>
<path d="M1316 1334 l-106 -175 0 -95 0 -96 116 -169 115 -169 81 0 c63 0 78
3 71 13 -19 24 -280 392 -287 404 -4 8 48 102 133 238 l140 225 -79 0 -79 0
-105 -176z"/>
<path d="M630 1060 c0 -58 1 -62 45 -103 40 -39 45 -48 45 -88 0 -52 -29 -105
-65 -119 -23 -9 -25 -15 -25 -65 0 -64 3 -65 75 -31 97 45 144 118 145 221 0
87 -42 154 -129 206 -36 22 -71 39 -78 39 -9 0 -13 -17 -13 -60z"/>
<path d="M366 769 c-3 -8 -9 -31 -15 -51 -9 -37 -9 -37 34 -58 24 -12 75 -24
114 -29 l71 -7 0 51 0 50 -82 21 c-46 12 -91 24 -100 29 -12 4 -19 2 -22 -6z"/>
</g>
</svg>
